<svg
        width="430px"
        height="120px"
        xmlns="http://www.w3.org/2000/svg"
        preserveAspectRatio="xMidYMid meet"
        viewBox="0 0 430 120">
    <path d="
    M 60,60
    m 60,0
    a 60,60 0 1,0 -120,0
    a 60,60 0 1,0 120,0" fill="#00000000"/>
    <path d="M 37,5
    L 83,5
    Q 83,28.3 105.2,21.1
    L 119.4,64.8
    Q 97.2,72.1 110.9,91
    L 73.7,118
    Q 60,99.1 46.3,118
    L 9.1, 91
    Q 22.9,72.1 0.6,64.9
    L 14.8,21.1
    Q 37,28.3 37,5
	Z
    M 60,60
    m 30,0
    a 30,30 0 1,0 -60,0
    a 30,30 0 1,0 60,0" fill="#1E1E1E" stroke="#1E1E1E" id="meta-gear-svg1"/>
    <path d="
    M 60,60
    m 30,0
    a 30,30 0 1,0 -60,0
    a 30,30 0 1,0 60,0
    M 60,60
    m 24,0
    a 24,24 0 1,0 -48,0
    a 24,24 0 1,0 48,0" fill="#A7A7AC" stroke="#A7A7AC" stroke-width="0.1" fill-rule="evenodd" id="meta-gear-svg2"/>
    <path d="
    M 150, 35
    L 150, 85
    L 160, 85
    L 160, 35
    Z
    M 170, 35
    L 170, 70
    L 180, 70
    L 180, 35
    Z
    M 190, 35
    L 190, 85
    L 200, 85
    L 200, 35
    Z
    M 225, 35
    L 275, 35
    L 275, 45
    L 225, 45
    Z
    M 225, 55
    L 275, 55
    L 275, 65
    L 225, 65
    Z
    M 225, 75
    L 275, 75
    L 275, 85
    L 225, 85
    Z
    M 300, 35
    L 350, 35
    L 350, 45
    L 300, 45
    Z
    M 320, 45
    L 320, 85
    L 330, 85
    L 330, 45
    Z
    M 375, 35
    L 425, 35
    L 425, 45
    L 375, 45
    Z
    M 375, 45
    L 385, 45
    L 385, 85
    L 375, 85
    Z
    M 415, 45
    L 425, 45
    L 425, 85
    L 415, 85
    Z
    M 385, 55
    L 415, 55
    L 415, 65
    L 385, 65
    Z" fill="#1E1E1E" id="meta-text-svg"/>
</svg>