<svg
        width="550px"
        height="100px"
        xmlns="http://www.w3.org/2000/svg"
        preserveAspectRatio="xMidYMid meet"
        viewBox="0 0 55 10">
    <path d="M 0, 0
    L 0, 10
    L 2, 10
    L 2, 0
    Z
    M 4, 0
    L 4, 5
    L 6, 5
    L 6, 0
    Z
    M 8, 0
    L 8, 10
    L 10, 10
    L 10, 0
    Z
    M 15, 0
    L 25, 0
    L 25, 2
    L 15, 2
    Z
    M 15, 4
    L 25, 4
    L 25, 6
    L 15, 6
    Z
    M 15, 8
    L 25, 8
    L 25, 10
    L 15, 10
    Z
    M 30, 0
    L 40, 0
    L 40, 2
    L 30, 2
    Z
    M 34, 2
    L 34, 10
    L 36, 10
    L 36, 2
    Z
    M 45, 0
    L 55, 0
    L 55, 2
    L 45, 2
    Z
    M 45, 2
    L 47, 2
    L 47, 10
    L 45, 10
    Z
    M 53, 2
    L 55, 2
    L 55, 10
    L 53, 10
    Z
    M 47, 4
    L 53, 4
    L 53, 6
    L 47, 6
    Z" fill="#1E1E1E" id="meta-text-svg"/>
</svg>